<?xml version="1.0" encoding="UTF-8"?><svg id="Layer_1" xmlns="http://www.w3.org/2000/svg" viewBox="0 0 582 582"><defs><style>.cls-1{fill:#f59222;stroke-width:0px;}</style></defs><path class="cls-1" d="M291.61,274.36c-10.94,0-19.79,3.47-26.55,10.42-6.77,6.95-10.15,16.08-10.15,27.38v3.34c0,11.31,3.38,20.43,10.15,27.38,6.76,6.95,15.61,10.42,26.55,10.42s19.78-3.38,26.55-10.15c6.76-6.76,10.15-15.98,10.15-27.66v-3.34c0-11.68-3.38-20.89-10.15-27.66-6.77-6.76-15.62-10.15-26.55-10.15ZM291,0C130.29,0,0,130.29,0,291s130.29,291,291,291,291-130.29,291-291S451.71,0,291,0ZM197.65,341.64c0,13.72-5,24.65-15.01,32.8-10.01,8.16-24.09,12.23-42.26,12.23-10.75,0-19.92-1.39-27.52-4.17-7.6-2.78-13.9-6.25-18.9-10.42s-8.85-8.8-11.54-13.9c-2.69-5.1-4.5-10.05-5.42-14.87l32.25-10.56c1.48,5.93,4.59,11.12,9.31,15.57,4.73,4.45,12,6.67,21.82,6.67,8.71,0,14.69-1.34,17.93-4.03,3.24-2.68,4.87-5.6,4.87-8.76,0-1.85-.42-3.57-1.25-5.14-.83-1.57-2.36-3.06-4.59-4.45-2.22-1.39-5.24-2.55-9.03-3.48-3.8-.92-8.57-1.67-14.32-2.22-15.57-1.29-27.94-5.33-37.11-12.09-9.17-6.76-13.76-16.72-13.76-29.89v-1.67c0-6.85,1.48-12.88,4.45-18.07,2.96-5.19,6.85-9.59,11.68-13.21,4.82-3.61,10.38-6.35,16.68-8.2,6.3-1.85,12.79-2.78,19.46-2.78,8.71,0,16.26,1.07,22.66,3.2,6.39,2.13,11.81,4.91,16.26,8.34,4.45,3.43,8.06,7.23,10.84,11.4,2.78,4.17,4.91,8.2,6.39,12.09l-31.69,12.79c-1.67-5-4.54-8.94-8.62-11.82-4.08-2.87-9.36-4.31-15.85-4.31-5.93,0-10.38,1.07-13.34,3.2-2.97,2.13-4.45,4.77-4.45,7.92,0,4.45,2.32,7.64,6.95,9.59,4.63,1.95,13.07,3.57,25.3,4.87,14.08,1.49,25.58,5.7,34.47,12.65s13.34,16.64,13.34,29.05v1.67ZM363.34,316.34c0,11.31-1.58,21.32-4.73,30.02-3.15,8.71-7.42,16.08-12.79,22.1-5.38,6.03-11.72,10.56-19.04,13.62-7.32,3.06-15.25,4.59-23.77,4.59-6.3,0-11.77-.65-16.4-1.95-4.63-1.3-8.67-3.06-12.09-5.28-3.43-2.22-6.3-4.77-8.62-7.65-2.32-2.87-4.31-5.88-5.98-9.03h-5v75.62h-35.03v-193.49h35.03v20.02h5c3.71-7.6,9.08-13.48,16.12-17.65,7.04-4.17,16.03-6.25,26.97-6.25,8.15,0,15.89,1.58,23.21,4.73,7.32,3.15,13.71,7.74,19.18,13.76,5.46,6.02,9.82,13.39,13.07,22.1,3.24,8.71,4.86,18.63,4.86,29.75v5ZM323.98,194.11c-8.99-6.3-16.09-11.27-28.06-11.27-12,0-19.12,4.99-28.15,11.32-10.12,7.09-22.71,15.92-42.66,15.92-.08,0-.16,0-.23,0-20.27-.07-32.95-9.16-43.14-16.47-8.95-6.42-16.02-11.49-27.82-11.49s-18.87,5.07-27.82,11.49c-10.19,7.31-22.87,16.4-43.14,16.47l-.09-26c11.96-.04,19.07-5.14,28.08-11.6,10.16-7.29,22.81-16.36,42.97-16.36s32.81,9.07,42.97,16.36c9,6.46,16.12,11.56,28.08,11.6,11.82.07,18.92-4.92,27.89-11.21,10.19-7.14,22.86-16.03,43.07-16.03h0c20.17,0,32.81,8.86,42.97,15.97,8.98,6.29,16.08,11.26,28.03,11.26s19.07-4.97,28.06-11.27c10.16-7.11,22.79-15.96,42.94-15.96s32.79,8.85,42.94,15.96c8.99,6.3,16.09,11.27,28.06,11.27v26c-20.17,0-32.81-8.86-42.98-15.97-8.98-6.29-16.08-11.26-28.02-11.26s-19.04,4.97-28.02,11.26c-10.16,7.12-22.81,15.97-42.98,15.97s-32.79-8.85-42.94-15.96ZM473.98,382.78v-78.4c0-9.82-2.36-17.56-7.09-23.21-4.73-5.65-11.54-8.48-20.43-8.48-10.38,0-18.12,3.47-23.21,10.42-5.1,6.95-7.64,16.26-7.64,27.94v71.72h-35.03v-137.89h35.03v20.57h5c3.15-7.78,8.24-13.8,15.29-18.07,7.04-4.26,15.29-6.39,24.74-6.39,6.67,0,12.93,1.07,18.77,3.2,5.84,2.13,10.98,5.42,15.43,9.87s7.92,10.1,10.42,16.96c2.5,6.86,3.75,15.01,3.75,24.46v87.29h-35.03Z"/></svg>